<svg width="28" height="23" viewBox="0 0 28 23" fill="none" xmlns="http://www.w3.org/2000/svg">
<path d="M5.09128 12.5835C4.73575 12.5835 4.38821 12.6889 4.0926 12.8864C3.79699 13.084 3.56659 13.3647 3.43053 13.6932C3.29448 14.0216 3.25888 14.3831 3.32824 14.7318C3.3976 15.0805 3.5688 15.4008 3.8202 15.6522C4.0716 15.9036 4.39189 16.0748 4.74059 16.1441C5.08928 16.2135 5.45072 16.1779 5.77918 16.0418C6.10765 15.9058 6.38839 15.6754 6.58591 15.3798C6.78343 15.0841 6.88886 14.7366 6.88886 14.3811C6.88886 13.9043 6.69947 13.4471 6.36236 13.11C6.02525 12.7729 5.56803 12.5835 5.09128 12.5835ZM5.09128 15.2799C4.91352 15.2799 4.73974 15.2272 4.59194 15.1284C4.44413 15.0296 4.32893 14.8893 4.26091 14.725C4.19288 14.5608 4.17508 14.3801 4.20976 14.2057C4.24444 14.0314 4.33004 13.8712 4.45574 13.7455C4.58144 13.6198 4.74159 13.5342 4.91593 13.4996C5.09028 13.4649 5.271 13.4827 5.43523 13.5507C5.59946 13.6187 5.73983 13.7339 5.83859 13.8817C5.93735 14.0295 5.99007 14.2033 5.99007 14.3811C5.99007 14.6195 5.89537 14.8481 5.72682 15.0166C5.55826 15.1852 5.32965 15.2799 5.09128 15.2799Z" fill="white"/>
<path d="M23.067 12.5835C22.7115 12.5835 22.3639 12.6889 22.0683 12.8864C21.7727 13.084 21.5423 13.3647 21.4063 13.6932C21.2702 14.0216 21.2346 14.3831 21.304 14.7318C21.3733 15.0805 21.5445 15.4008 21.7959 15.6522C22.0473 15.9036 22.3676 16.0748 22.7163 16.1441C23.065 16.2135 23.4265 16.1779 23.7549 16.0418C24.0834 15.9058 24.3641 15.6754 24.5616 15.3798C24.7592 15.0841 24.8646 14.7366 24.8646 14.3811C24.8646 13.9043 24.6752 13.4471 24.3381 13.11C24.001 12.7729 23.5438 12.5835 23.067 12.5835ZM23.067 15.2799C22.8892 15.2799 22.7155 15.2272 22.5677 15.1284C22.4199 15.0296 22.3047 14.8893 22.2366 14.725C22.1686 14.5608 22.1508 14.3801 22.1855 14.2057C22.2202 14.0314 22.3058 13.8712 22.4315 13.7455C22.5572 13.6198 22.7173 13.5342 22.8917 13.4996C23.066 13.4649 23.2467 13.4827 23.411 13.5507C23.5752 13.6187 23.7156 13.7339 23.8143 13.8817C23.9131 14.0295 23.9658 14.2033 23.9658 14.3811C23.9658 14.6195 23.8711 14.8481 23.7025 15.0166C23.534 15.1852 23.3054 15.2799 23.067 15.2799Z" fill="white"/>
<path d="M10.0345 14.8293H18.1236V15.7281H10.0345V14.8293Z" fill="white"/>
<path d="M10.0345 13.0327H18.1236V13.9315H10.0345V13.0327Z" fill="white"/>
<path d="M12.731 6.29126H15.4274V7.19005H12.731V6.29126Z" fill="white"/>
<path d="M27.5609 10.3361V9.43727C27.5599 9.08004 27.4175 8.73775 27.1649 8.48514C26.9123 8.23254 26.57 8.09016 26.2128 8.08909H24.4332L23.5029 4.82649L23.2243 3.71649C23.1512 3.42503 22.9828 3.16636 22.7458 2.98154C22.5089 2.79672 22.217 2.69635 21.9165 2.69636H18.1237V0.898788C18.1229 0.660633 18.028 0.432436 17.8596 0.264035C17.6912 0.0956332 17.463 0.000711268 17.2249 0H10.9334C10.6952 0.000711268 10.467 0.0956332 10.2986 0.264035C10.1302 0.432436 10.0353 0.660633 10.0346 0.898788V2.69636H6.24168C5.94119 2.69635 5.64931 2.79672 5.41238 2.98154C5.17545 3.16636 5.00706 3.42503 4.93394 3.71649L4.65981 4.822L3.72507 8.08909H1.94547C1.58824 8.09016 1.24594 8.23254 0.993342 8.48514C0.74074 8.73775 0.598357 9.08004 0.59729 9.43727V10.3361C0.598018 10.5637 0.656538 10.7875 0.767367 10.9863C0.878195 11.1852 1.0377 11.3527 1.23094 11.473C0.824684 11.8905 0.597346 12.4499 0.59729 13.0324V18.4252C0.59791 18.6137 0.63825 18.8 0.715681 18.9719C0.793112 19.1438 0.905897 19.2974 1.04668 19.4228V21.1215C1.04775 21.4788 1.19013 21.821 1.44274 22.0736C1.69534 22.3263 2.03763 22.4686 2.39487 22.4697H5.99002C6.34725 22.4686 6.68955 22.3263 6.94215 22.0736C7.19475 21.821 7.33713 21.4788 7.3382 21.1215V19.7733H20.82V21.1215C20.8211 21.4788 20.9635 21.821 21.2161 22.0736C21.4687 22.3263 21.811 22.4686 22.1682 22.4697H25.7634C26.1206 22.4686 26.4629 22.3263 26.7155 22.0736C26.9681 21.821 27.1105 21.4788 27.1115 21.1215V19.4228C27.2523 19.2974 27.3651 19.1438 27.4425 18.9719C27.52 18.8 27.5603 18.6137 27.5609 18.4252V13.0324C27.5609 12.4499 27.3335 11.8905 26.9273 11.473C27.1205 11.3527 27.28 11.1852 27.3909 10.9863C27.5017 10.7875 27.5602 10.5637 27.5609 10.3361ZM10.9334 0.898788H17.2249V2.69636H10.9334V0.898788ZM5.80577 3.93669C5.82985 3.83926 5.88586 3.7527 5.96487 3.6908C6.04387 3.6289 6.14132 3.59523 6.24168 3.59515H21.9165C22.0169 3.59523 22.1144 3.6289 22.1934 3.6908C22.2724 3.7527 22.3284 3.83926 22.3525 3.93669L22.4918 4.49394H5.66646L5.80577 3.93669ZM5.42828 5.39273H22.7299L24.2669 10.7855H11.3423C11.2367 10.1574 10.9119 9.58715 10.4257 9.17587C9.93947 8.76459 9.32323 8.53892 8.68638 8.53892C8.04954 8.53892 7.4333 8.76459 6.94707 9.17587C6.46084 9.58715 6.13609 10.1574 6.03046 10.7855H3.89135L5.42828 5.39273ZM10.421 10.7855H6.95172C7.04984 10.3998 7.27365 10.0579 7.58779 9.8137C7.90193 9.56949 8.28848 9.43691 8.68638 9.43691C9.08428 9.43691 9.47084 9.56949 9.78498 9.8137C10.0991 10.0579 10.3229 10.3998 10.421 10.7855ZM1.49608 9.43727C1.49608 9.31809 1.54343 9.20378 1.6277 9.1195C1.71198 9.03523 1.82629 8.98788 1.94547 8.98788H3.46892L2.95661 10.7855H1.94547C1.82629 10.7855 1.71198 10.7381 1.6277 10.6538C1.54343 10.5696 1.49608 10.4552 1.49608 10.3361V9.43727ZM6.43941 21.1215C6.43941 21.2407 6.39207 21.355 6.30779 21.4393C6.22351 21.5236 6.10921 21.5709 5.99002 21.5709H2.39487C2.27568 21.5709 2.16137 21.5236 2.0771 21.4393C1.99282 21.355 1.94547 21.2407 1.94547 21.1215V19.7733H6.43941V21.1215ZM26.2128 21.1215C26.2128 21.2407 26.1654 21.355 26.0811 21.4393C25.9969 21.5236 25.8825 21.5709 25.7634 21.5709H22.1682C22.049 21.5709 21.9347 21.5236 21.8504 21.4393C21.7662 21.355 21.7188 21.2407 21.7188 21.1215V19.7733H26.2128V21.1215ZM26.6621 18.4252C26.6621 18.5443 26.6148 18.6586 26.5305 18.7429C26.4462 18.8272 26.3319 18.8745 26.2128 18.8745H1.94547C1.82629 18.8745 1.71198 18.8272 1.6277 18.7429C1.54343 18.6586 1.49608 18.5443 1.49608 18.4252V17.9758H26.6621V18.4252ZM26.6621 17.077H1.49608V13.0324C1.49715 12.6752 1.63953 12.3329 1.89213 12.0803C2.14473 11.8277 2.48703 11.6853 2.84426 11.6842H25.314C25.6712 11.6853 26.0135 11.8277 26.2661 12.0803C26.5187 12.3329 26.6611 12.6752 26.6621 13.0324V17.077ZM26.6621 10.3361C26.6621 10.4552 26.6148 10.5696 26.5305 10.6538C26.4462 10.7381 26.3319 10.7855 26.2128 10.7855H25.2016L24.6893 8.98788H26.2128C26.3319 8.98788 26.4462 9.03523 26.5305 9.1195C26.6148 9.20378 26.6621 9.31809 26.6621 9.43727V10.3361Z" fill="white"/>
</svg>
