<svg width="27" height="28" viewBox="0 0 27 28" fill="none" xmlns="http://www.w3.org/2000/svg">
<path d="M0.829035 6.01033C0.473631 6.01033 0.182846 5.71954 0.176386 5.36414V1.29962C0.176386 0.937757 0.467169 0.646973 0.829035 0.646973H4.89355C5.24896 0.646973 5.53974 0.937757 5.53974 1.29962V2.71477H21.1775V1.29962C21.1775 0.944219 21.4683 0.653435 21.8237 0.646973H25.8882C26.2436 0.646973 26.5344 0.937757 26.5408 1.29962V5.36414C26.5408 5.71954 26.25 6.01033 25.8882 6.01033H24.473V21.6481H25.8882C26.2436 21.6481 26.5344 21.9388 26.5408 22.2943V26.3588C26.5408 26.7142 26.25 27.005 25.8882 27.0114H21.8237C21.4683 27.0114 21.1775 26.7206 21.1775 26.3588V24.9436H5.53974V26.3588C5.53974 26.7142 5.24896 27.005 4.89355 27.0114H0.829035C0.473631 27.0114 0.182846 26.7206 0.176386 26.3588V22.2943C0.176386 21.9388 0.467169 21.6481 0.829035 21.6481H2.24418V6.01033H0.829035ZM25.2485 4.71795V1.93935H22.4699V4.71795H25.2485ZM22.4699 25.719H25.2485V22.9404H22.4699V25.719ZM5.53974 22.2943V23.6512H21.1775V22.2943C21.1775 21.9388 21.4683 21.6481 21.8237 21.6481H23.1807V6.01033H21.8237C21.4683 6.01033 21.1775 5.71954 21.1775 5.36414V4.00715H5.53974V5.36414C5.53974 5.71954 5.24896 6.01033 4.89355 6.01033H3.53656V21.6481H4.89355C5.24896 21.6481 5.53974 21.9388 5.53974 22.2943ZM1.46876 22.9404V25.719H4.24737V22.9404H1.46876ZM4.24737 4.71795V1.93935H1.46876V4.71795H4.24737Z" fill="white"/>
</svg>
