<svg width="27" height="23" viewBox="0 0 27 23" fill="none" xmlns="http://www.w3.org/2000/svg">
<path d="M23.9263 22.2621C23.3869 22.2731 22.857 22.1187 22.4078 21.8198C22.0735 21.6013 21.6828 21.485 21.2834 21.485C20.884 21.485 20.4933 21.6013 20.159 21.8198C19.7053 22.1086 19.1786 22.2621 18.6407 22.2621C18.1028 22.2621 17.5761 22.1086 17.1224 21.8198C16.788 21.6011 16.3972 21.4846 15.9978 21.4846C15.5983 21.4846 15.2075 21.6011 14.8732 21.8198C14.4194 22.1086 13.8927 22.2621 13.3548 22.2621C12.817 22.2621 12.2902 22.1086 11.8365 21.8198C11.5024 21.6012 11.1119 21.4848 10.7127 21.4848C10.3135 21.4848 9.92294 21.6012 9.58886 21.8198C9.17749 22.0931 8.69741 22.2451 8.20366 22.2582L8.17645 21.4808C8.54117 21.4722 8.89534 21.3568 9.19514 21.1489C9.64875 20.8601 10.1753 20.7067 10.7131 20.7067C11.2508 20.7067 11.7774 20.8601 12.231 21.1489C12.5653 21.3675 12.956 21.4839 13.3554 21.4839C13.7548 21.4839 14.1455 21.3675 14.4798 21.1489C14.9336 20.8599 15.4605 20.7063 15.9985 20.7063C16.5366 20.7063 17.0634 20.8599 17.5172 21.1489C17.8515 21.3675 18.2423 21.4839 18.6417 21.4839C19.041 21.4839 19.4318 21.3675 19.7661 21.1489C20.2198 20.8601 20.7465 20.7068 21.2844 20.7068C21.8222 20.7068 22.3489 20.8601 22.8027 21.1489C23.1378 21.368 23.5295 21.4846 23.9298 21.4846C24.3302 21.4846 24.7219 21.368 25.057 21.1489C25.5056 20.8508 26.0346 20.6968 26.5731 20.7074V21.4847C26.1722 21.4738 25.7781 21.591 25.4483 21.8194C24.9981 22.1188 24.467 22.2733 23.9263 22.2621Z" fill="white"/>
<path d="M2.78696 22.2616C2.24762 22.2728 1.7178 22.1184 1.26884 21.8193C0.939135 21.5907 0.545081 21.4734 0.144043 21.4843V20.707C0.683519 20.6958 1.21348 20.8501 1.66256 21.1493C1.99208 21.3779 2.38604 21.4953 2.78696 21.4843C3.18807 21.4953 3.5822 21.3778 3.91176 21.1489C4.35989 20.8499 4.88897 20.6956 5.42755 20.707C5.95309 20.6952 6.46992 20.8424 6.91031 21.1294L6.51815 21.8003C6.19647 21.5838 5.81514 21.4733 5.42755 21.4843C5.0281 21.4735 4.63565 21.5906 4.30742 21.8185C3.85795 22.1185 3.3272 22.2731 2.78696 22.2616Z" fill="white"/>
<path d="M23.9276 19.5421C23.3878 19.5531 22.8575 19.3988 22.408 19.0998C22.0733 18.8811 21.6823 18.7647 21.2826 18.7647C20.8829 18.7647 20.4918 18.8811 20.1572 19.0998C19.7035 19.3886 19.1769 19.542 18.6391 19.542C18.1013 19.542 17.5746 19.3886 17.1209 19.0998C16.7868 18.8812 16.3962 18.7649 15.9969 18.7649C15.5977 18.7649 15.2071 18.8812 14.8729 19.0998C14.4192 19.3886 13.8926 19.5421 13.3548 19.5421C12.817 19.5421 12.2903 19.3886 11.8366 19.0998C11.5025 18.8812 11.1119 18.7649 10.7126 18.7649C10.3134 18.7649 9.92276 18.8812 9.58861 19.0998C9.13967 19.3989 8.60984 19.5533 8.07048 19.5421C7.53113 19.5533 7.0013 19.3989 6.55236 19.0998C6.22295 18.8712 5.82913 18.7538 5.42834 18.7647C5.02766 18.7539 4.63399 18.8712 4.3047 19.0998C3.85647 19.3986 3.32749 19.5529 2.78891 19.5421C2.24943 19.5533 1.71948 19.3989 1.27039 19.0998C0.940329 18.8707 0.54563 18.7533 0.144043 18.7647V17.9874C0.683391 17.9763 1.21321 18.1306 1.66217 18.4297C1.99187 18.6583 2.38593 18.7757 2.78697 18.7647C3.18764 18.7756 3.58131 18.6582 3.9106 18.4297C4.35883 18.1309 4.88781 17.9766 5.42639 17.9874C5.96615 17.9759 6.49643 18.1303 6.94568 18.4297C7.27521 18.6584 7.66916 18.7757 8.07009 18.7647C8.47102 18.7757 8.86497 18.6584 9.1945 18.4297C9.64814 18.1408 10.1748 17.9873 10.7126 17.9873C11.2505 17.9873 11.7771 18.1408 12.2308 18.4297C12.565 18.6483 12.9556 18.7647 13.355 18.7647C13.7543 18.7647 14.145 18.6483 14.4792 18.4297C14.9328 18.1408 15.4595 17.9873 15.9973 17.9873C16.5351 17.9873 17.0618 18.1408 17.5154 18.4297C17.8496 18.6483 18.2403 18.7647 18.6396 18.7647C19.039 18.7647 19.4296 18.6483 19.7639 18.4297C20.218 18.1409 20.745 17.9875 21.2832 17.9875C21.8213 17.9875 22.3483 18.1409 22.8024 18.4297C23.1373 18.6482 23.5284 18.7645 23.9282 18.7645C24.328 18.7645 24.7192 18.6482 25.054 18.4297C25.5035 18.1308 26.0336 17.9765 26.5733 17.9874V18.7647C26.1715 18.7534 25.7765 18.8708 25.4461 19.0998C24.9969 19.3985 24.4671 19.5529 23.9276 19.5421Z" fill="white"/>
<path d="M23.9264 16.8215C23.387 16.8325 22.8571 16.6782 22.4079 16.3792C22.0782 16.1506 21.6841 16.0332 21.2831 16.0441C20.9888 16.034 20.6965 16.0968 20.4323 16.2268L20.0895 15.5272C20.4606 15.3454 20.87 15.2556 21.2831 15.2656C21.8232 15.2546 22.3537 15.4094 22.8032 15.7091C23.1383 15.9282 23.5299 16.0448 23.9303 16.0448C24.3307 16.0448 24.7223 15.9282 25.0574 15.7091C25.5059 15.4108 26.0347 15.2565 26.5732 15.2668V16.0441C26.1722 16.0332 25.7782 16.1504 25.4484 16.3788C24.9982 16.6782 24.467 16.8327 23.9264 16.8215Z" fill="white"/>
<path d="M18.6367 16.8209C18.0981 16.8322 17.5691 16.6779 17.1209 16.379C16.7866 16.1603 16.3958 16.0438 15.9963 16.0438C15.5969 16.0438 15.206 16.1603 14.8717 16.379C14.418 16.6678 13.8913 16.8213 13.3534 16.8213C12.8155 16.8213 12.2888 16.6678 11.8351 16.379C11.5008 16.1604 11.1101 16.044 10.7107 16.044C10.3113 16.044 9.92056 16.1604 9.58627 16.379C9.1374 16.6776 8.60794 16.8318 8.06892 16.8209C7.52958 16.832 6.99976 16.6777 6.5508 16.3786C6.22109 16.15 5.82704 16.0326 5.426 16.0435C5.02655 16.0328 4.6341 16.1499 4.30587 16.3778C3.85683 16.6774 3.32668 16.8321 2.78697 16.8209C2.24762 16.832 1.7178 16.6777 1.26884 16.3786C0.939135 16.15 0.545081 16.0326 0.144043 16.0435V15.2662C0.68352 15.255 1.21348 15.4094 1.66256 15.7085C1.99208 15.9371 2.38604 16.0545 2.78697 16.0435C3.18808 16.0546 3.5822 15.937 3.91176 15.7081C4.35989 15.4091 4.88897 15.2549 5.42756 15.2662C5.9669 15.2551 6.49671 15.4094 6.94568 15.7085C7.27521 15.9371 7.66916 16.0545 8.07009 16.0435C8.47113 16.0544 8.86518 15.9371 9.19489 15.7085C9.64861 15.4196 10.1753 15.2662 10.7132 15.2662C11.2511 15.2662 11.7778 15.4196 12.2315 15.7085C12.5658 15.927 12.9565 16.0434 13.3559 16.0434C13.7553 16.0434 14.1461 15.927 14.4803 15.7085C14.9341 15.4194 15.461 15.2659 15.9991 15.2659C16.5371 15.2659 17.064 15.4194 17.5178 15.7085C17.8602 15.9388 18.2662 16.0559 18.6787 16.0431C18.7087 16.0435 18.7387 16.042 18.7685 16.0385L18.8719 16.8088C18.7938 16.8179 18.7153 16.8219 18.6367 16.8209Z" fill="white"/>
<path d="M23.9276 14.1007C23.3878 14.1117 22.8575 13.9573 22.408 13.6584C22.0733 13.4397 21.6823 13.3233 21.2826 13.3233C20.8829 13.3233 20.4918 13.4397 20.1572 13.6584C19.7035 13.9472 19.1769 14.1005 18.6391 14.1005C18.1013 14.1005 17.5746 13.9472 17.1209 13.6584C16.7868 13.4398 16.3962 13.3235 15.9969 13.3235C15.5977 13.3235 15.2071 13.4398 14.8729 13.6584C14.4192 13.9472 13.8926 14.1007 13.3548 14.1007C12.817 14.1007 12.2903 13.9472 11.8366 13.6584C11.5025 13.4398 11.1119 13.3235 10.7126 13.3235C10.3134 13.3235 9.92276 13.4398 9.58861 13.6584C9.13967 13.9575 8.60984 14.1119 8.07048 14.1007C7.53113 14.1119 7.0013 13.9575 6.55236 13.6584C6.22295 13.4298 5.82913 13.3124 5.42834 13.3233C5.02766 13.3125 4.63399 13.4298 4.3047 13.6584C3.85647 13.9572 3.32749 14.1115 2.78891 14.1007C2.24943 14.1119 1.71948 13.9575 1.27039 13.6584C0.940329 13.4293 0.54563 13.3119 0.144043 13.3233V12.546C0.683391 12.5349 1.21321 12.6892 1.66217 12.9883C1.99187 13.2169 2.38593 13.3343 2.78697 13.3233C3.18764 13.3342 3.58131 13.2168 3.9106 12.9883C4.35883 12.6895 4.88781 12.5352 5.42639 12.546C5.96615 12.5345 6.49643 12.6889 6.94568 12.9883C7.27521 13.2169 7.66916 13.3343 8.07009 13.3233C8.47102 13.3343 8.86497 13.2169 9.1945 12.9883C9.64814 12.6994 10.1748 12.5459 10.7126 12.5459C11.2505 12.5459 11.7771 12.6994 12.2308 12.9883C12.565 13.2069 12.9556 13.3233 13.355 13.3233C13.7543 13.3233 14.145 13.2069 14.4792 12.9883C14.9328 12.6994 15.4595 12.5459 15.9973 12.5459C16.5351 12.5459 17.0618 12.6994 17.5154 12.9883C17.8496 13.2069 18.2403 13.3233 18.6396 13.3233C19.039 13.3233 19.4296 13.2069 19.7639 12.9883C20.218 12.6995 20.745 12.5461 21.2832 12.5461C21.8213 12.5461 22.3483 12.6995 22.8024 12.9883C23.1373 13.2068 23.5284 13.3231 23.9282 13.3231C24.328 13.3231 24.7192 13.2068 25.054 12.9883C25.5035 12.6894 26.0336 12.5351 26.5733 12.546V13.3233C26.1715 13.312 25.7765 13.4294 25.4461 13.6584C24.9969 13.9571 24.4671 14.1114 23.9276 14.1007Z" fill="white"/>
<path d="M18.3891 13.7699L17.6557 13.5126C17.8446 12.9699 17.9218 12.3946 17.8826 11.8213C17.8434 11.2481 17.6886 10.6886 17.4276 10.1767L14.7578 4.94877C14.7315 4.89714 14.717 4.84027 14.7154 4.78232C14.7139 4.72437 14.7254 4.66682 14.7489 4.61387C14.7725 4.56091 14.8077 4.51391 14.8518 4.47629C14.8959 4.43868 14.9478 4.41141 15.0038 4.39647L20.3243 2.97784C20.4977 2.9325 20.6461 2.82053 20.7374 2.66629C20.8286 2.51204 20.8553 2.32801 20.8115 2.15422C20.7677 1.98043 20.6571 1.83096 20.5037 1.73831C20.3503 1.64566 20.1665 1.61733 19.9924 1.65949L13.553 3.19861C13.4153 3.23114 13.287 3.29492 13.1779 3.38501C13.0689 3.47511 12.982 3.5891 12.9241 3.71815C12.8662 3.8472 12.8388 3.98785 12.844 4.1292C12.8492 4.27056 12.8868 4.40882 12.954 4.53328L14.8663 8.08568C14.9148 8.17597 14.9256 8.28176 14.8965 8.38003C14.8674 8.4783 14.8007 8.56109 14.7108 8.61038L12.2428 9.97071L11.8677 9.28977L13.9984 8.11522L12.2704 4.90174C12.1467 4.67233 12.0775 4.41757 12.0681 4.15716C12.0587 3.89674 12.1093 3.63764 12.216 3.3999C12.3227 3.16215 12.4826 2.95213 12.6835 2.78608C12.8843 2.62003 13.1206 2.50239 13.3742 2.44226L19.8105 0.90354C20.1852 0.80886 20.5821 0.866907 20.914 1.06491C21.2459 1.26291 21.4856 1.58465 21.5803 1.95935C21.6749 2.33405 21.6169 2.73101 21.4189 3.06291C21.2209 3.39481 20.8991 3.63446 20.5244 3.72913L15.6685 5.02339L18.1202 9.82263C18.4289 10.4284 18.6119 11.0904 18.6581 11.7688C18.7043 12.4471 18.6128 13.1278 18.3891 13.7699Z" fill="white"/>
<path d="M10.5092 10.0456L5.78601 12.6482L6.16097 13.3287L10.8841 10.7261L10.5092 10.0456Z" fill="white"/>
<path d="M21.9093 11.1854C21.3328 11.1854 20.7692 11.0145 20.2898 10.6942C19.8105 10.3739 19.4368 9.91862 19.2162 9.38597C18.9956 8.85333 18.9379 8.26722 19.0503 7.70177C19.1628 7.13632 19.4404 6.61692 19.8481 6.20925C20.2558 5.80158 20.7752 5.52396 21.3406 5.41148C21.9061 5.29901 22.4922 5.35673 23.0248 5.57736C23.5575 5.79799 24.0127 6.17161 24.333 6.65098C24.6533 7.13034 24.8243 7.69393 24.8243 8.27046C24.8235 9.04331 24.5161 9.78427 23.9696 10.3308C23.4231 10.8772 22.6822 11.1846 21.9093 11.1854ZM21.9093 6.1328C21.4865 6.1328 21.0732 6.25817 20.7217 6.49306C20.3702 6.72795 20.0962 7.06181 19.9344 7.45241C19.7726 7.84302 19.7302 8.27283 19.8127 8.68749C19.8952 9.10216 20.0988 9.48305 20.3978 9.78201C20.6967 10.081 21.0776 10.2846 21.4923 10.367C21.9069 10.4495 22.3368 10.4072 22.7274 10.2454C23.118 10.0836 23.4518 9.80961 23.6867 9.45807C23.9216 9.10654 24.047 8.69324 24.047 8.27046C24.0462 7.70374 23.8208 7.16043 23.4201 6.7597C23.0193 6.35897 22.476 6.13352 21.9093 6.1328Z" fill="white"/>
</svg>
